<svg width="134" height="50" viewBox="0 0 134 50" fill="none" xmlns="http://www.w3.org/2000/svg">
<g clip-path="url(#clip0_28158_4559)">
<path d="M42.9059 45.4667L40.3684 16.7167C40.1778 14.551 38.3934 12.9167 36.2184 12.9167C35.7187 12.9167 35.3122 13.3229 35.3122 13.8229V18.3052C35.3122 18.749 34.9768 19.1365 34.534 19.1646C34.0486 19.1958 33.6455 18.8115 33.6455 18.3333V8.64583C33.6455 3.87812 29.7674 0 24.9997 0C20.232 0 16.3538 3.87812 16.3538 8.64583V12.9167H13.7809C11.6059 12.9167 9.82154 14.551 9.63092 16.7167L7.09342 45.4667C6.87987 47.8964 8.79581 50 11.2445 50H38.7549C41.2038 50 43.1195 47.896 42.9059 45.4667ZM20.208 44.4792H14.1663C13.7061 44.4792 13.333 44.106 13.333 43.6458C13.333 43.1856 13.7061 42.8125 14.1663 42.8125H20.208C20.6682 42.8125 21.0413 43.1856 21.0413 43.6458C21.0413 44.106 20.6682 44.4792 20.208 44.4792ZM20.208 40.3125H14.1663C13.7061 40.3125 13.333 39.9394 13.333 39.4792C13.333 39.019 13.7061 38.6458 14.1663 38.6458H20.208C20.6682 38.6458 21.0413 39.019 21.0413 39.4792C21.0413 39.9394 20.6682 40.3125 20.208 40.3125ZM31.9788 12.9167H20.5934C20.0934 12.9167 19.6872 13.3229 19.6872 13.8229V18.3052C19.6872 18.749 19.3517 19.1365 18.909 19.1646C18.4236 19.1958 18.0205 18.8115 18.0205 18.3333V8.64583C18.0205 4.79792 21.1517 1.66667 24.9997 1.66667C28.8476 1.66667 31.9788 4.79792 31.9788 8.64583V12.9167Z" fill="#DB3022"/>
</g>
<path d="M55.3256 39C54.7096 39 54.2336 38.8413 53.8976 38.524C53.5803 38.188 53.4216 37.712 53.4216 37.096V21.164C53.4216 20.548 53.5803 20.0813 53.8976 19.764C54.2336 19.428 54.7096 19.26 55.3256 19.26H62.0456C63.427 19.26 64.603 19.4653 65.5736 19.876C66.5443 20.2867 67.2816 20.8747 67.7856 21.64C68.3083 22.4053 68.5696 23.32 68.5696 24.384C68.5696 25.5787 68.2243 26.5867 67.5336 27.408C66.843 28.2293 65.9003 28.78 64.7056 29.06V28.64C66.087 28.8453 67.1603 29.368 67.9256 30.208C68.691 31.048 69.0736 32.14 69.0736 33.484C69.0736 35.2387 68.4763 36.6013 67.2816 37.572C66.1056 38.524 64.463 39 62.3536 39H55.3256ZM56.8656 36.284H61.9056C63.175 36.284 64.1083 36.0413 64.7056 35.556C65.303 35.052 65.6016 34.3053 65.6016 33.316C65.6016 32.308 65.303 31.5613 64.7056 31.076C64.1083 30.5907 63.175 30.348 61.9056 30.348H56.8656V36.284ZM56.8656 27.632H61.4296C62.6616 27.632 63.5763 27.3987 64.1736 26.932C64.7896 26.4467 65.0976 25.7373 65.0976 24.804C65.0976 23.8707 64.7896 23.1707 64.1736 22.704C63.5763 22.2187 62.6616 21.976 61.4296 21.976H56.8656V27.632ZM77.039 39.28C75.4896 39.28 74.323 38.8413 73.539 37.964C72.755 37.068 72.363 35.7613 72.363 34.044V20.8C72.363 20.2213 72.5123 19.7827 72.811 19.484C73.1096 19.1853 73.539 19.036 74.099 19.036C74.659 19.036 75.0883 19.1853 75.387 19.484C75.7043 19.7827 75.863 20.2213 75.863 20.8V33.876C75.863 34.7347 76.0403 35.3693 76.395 35.78C76.7683 36.1907 77.291 36.396 77.963 36.396C78.1123 36.396 78.2523 36.396 78.383 36.396C78.5136 36.3773 78.6443 36.3587 78.775 36.34C79.0363 36.3027 79.2136 36.3773 79.307 36.564C79.4003 36.732 79.447 37.0867 79.447 37.628C79.447 38.0947 79.3536 38.4587 79.167 38.72C78.9803 38.9813 78.6723 39.14 78.243 39.196C78.0563 39.2147 77.8603 39.2333 77.655 39.252C77.4496 39.2707 77.2443 39.28 77.039 39.28ZM85.8124 39.28C84.823 39.28 83.9364 39.0933 83.1524 38.72C82.387 38.328 81.7804 37.8053 81.3324 37.152C80.903 36.4987 80.6884 35.7613 80.6884 34.94C80.6884 33.932 80.9497 33.1387 81.4724 32.56C81.995 31.9627 82.8444 31.5333 84.0204 31.272C85.1964 31.0107 86.7737 30.88 88.7524 30.88H90.1524V32.896H88.7804C87.623 32.896 86.699 32.952 86.0084 33.064C85.3177 33.176 84.823 33.372 84.5244 33.652C84.2444 33.9133 84.1044 34.2867 84.1044 34.772C84.1044 35.388 84.319 35.892 84.7484 36.284C85.1777 36.676 85.775 36.872 86.5404 36.872C87.1564 36.872 87.6977 36.732 88.1644 36.452C88.6497 36.1533 89.0324 35.752 89.3124 35.248C89.5924 34.744 89.7324 34.1653 89.7324 33.512V30.292C89.7324 29.3587 89.527 28.6867 89.1164 28.276C88.7057 27.8653 88.015 27.66 87.0444 27.66C86.503 27.66 85.915 27.7253 85.2804 27.856C84.6644 27.9867 84.011 28.2107 83.3204 28.528C82.9657 28.696 82.6484 28.7427 82.3684 28.668C82.107 28.5933 81.9017 28.444 81.7524 28.22C81.603 27.9773 81.5284 27.716 81.5284 27.436C81.5284 27.156 81.603 26.8853 81.7524 26.624C81.9017 26.344 82.1537 26.1387 82.5084 26.008C83.367 25.6533 84.1884 25.4013 84.9724 25.252C85.775 25.1027 86.503 25.028 87.1564 25.028C88.5004 25.028 89.6017 25.2333 90.4604 25.644C91.3377 26.0547 91.991 26.68 92.4204 27.52C92.8497 28.3413 93.0644 29.4053 93.0644 30.712V37.432C93.0644 38.0107 92.9244 38.4587 92.6444 38.776C92.3644 39.0747 91.963 39.224 91.4404 39.224C90.9177 39.224 90.507 39.0747 90.2084 38.776C89.9284 38.4587 89.7884 38.0107 89.7884 37.432V36.088H90.0124C89.8817 36.7413 89.6204 37.3107 89.2284 37.796C88.855 38.2627 88.379 38.6267 87.8004 38.888C87.2217 39.1493 86.559 39.28 85.8124 39.28ZM98.3529 39.224C97.7929 39.224 97.3635 39.0747 97.0649 38.776C96.7662 38.4587 96.6169 38.0107 96.6169 37.432V26.848C96.6169 26.2693 96.7662 25.8307 97.0649 25.532C97.3635 25.2333 97.7835 25.084 98.3249 25.084C98.8662 25.084 99.2862 25.2333 99.5849 25.532C99.8835 25.8307 100.033 26.2693 100.033 26.848V28.752L99.7249 28.052C100.136 27.0627 100.77 26.316 101.629 25.812C102.506 25.2893 103.496 25.028 104.597 25.028C105.698 25.028 106.604 25.2333 107.313 25.644C108.022 26.0547 108.554 26.68 108.909 27.52C109.264 28.3413 109.441 29.3867 109.441 30.656V37.432C109.441 38.0107 109.292 38.4587 108.993 38.776C108.694 39.0747 108.265 39.224 107.705 39.224C107.145 39.224 106.706 39.0747 106.389 38.776C106.09 38.4587 105.941 38.0107 105.941 37.432V30.824C105.941 29.76 105.736 28.9853 105.325 28.5C104.933 28.0147 104.317 27.772 103.477 27.772C102.45 27.772 101.629 28.0987 101.013 28.752C100.416 29.3867 100.117 30.236 100.117 31.3V37.432C100.117 38.6267 99.5289 39.224 98.3529 39.224ZM111.316 44.292C110.905 44.3293 110.569 44.264 110.308 44.096C110.046 43.9467 109.869 43.7507 109.776 43.508C109.664 43.2653 109.626 43.0133 109.664 42.752C109.701 42.4907 109.813 42.2573 110 42.052C110.168 41.8653 110.401 41.7627 110.7 41.744C111.54 41.6693 112.146 41.4267 112.52 41.016C112.912 40.624 113.108 40.0173 113.108 39.196V26.848C113.108 26.2693 113.257 25.8307 113.556 25.532C113.873 25.2333 114.312 25.084 114.872 25.084C115.432 25.084 115.861 25.2333 116.16 25.532C116.458 25.8307 116.608 26.2693 116.608 26.848V38.888C116.608 40.0827 116.412 41.0627 116.02 41.828C115.646 42.5933 115.068 43.172 114.284 43.564C113.518 43.956 112.529 44.1987 111.316 44.292ZM114.844 22.508C114.19 22.508 113.677 22.3493 113.304 22.032C112.949 21.696 112.772 21.2387 112.772 20.66C112.772 20.0627 112.949 19.6053 113.304 19.288C113.677 18.9707 114.19 18.812 114.844 18.812C115.516 18.812 116.029 18.9707 116.384 19.288C116.738 19.6053 116.916 20.0627 116.916 20.66C116.916 21.2387 116.738 21.696 116.384 22.032C116.029 22.3493 115.516 22.508 114.844 22.508ZM124.75 39.28C123.761 39.28 122.874 39.0933 122.09 38.72C121.325 38.328 120.718 37.8053 120.27 37.152C119.841 36.4987 119.626 35.7613 119.626 34.94C119.626 33.932 119.887 33.1387 120.41 32.56C120.933 31.9627 121.782 31.5333 122.958 31.272C124.134 31.0107 125.711 30.88 127.69 30.88H129.09V32.896H127.718C126.561 32.896 125.637 32.952 124.946 33.064C124.255 33.176 123.761 33.372 123.462 33.652C123.182 33.9133 123.042 34.2867 123.042 34.772C123.042 35.388 123.257 35.892 123.686 36.284C124.115 36.676 124.713 36.872 125.478 36.872C126.094 36.872 126.635 36.732 127.102 36.452C127.587 36.1533 127.97 35.752 128.25 35.248C128.53 34.744 128.67 34.1653 128.67 33.512V30.292C128.67 29.3587 128.465 28.6867 128.054 28.276C127.643 27.8653 126.953 27.66 125.982 27.66C125.441 27.66 124.853 27.7253 124.218 27.856C123.602 27.9867 122.949 28.2107 122.258 28.528C121.903 28.696 121.586 28.7427 121.306 28.668C121.045 28.5933 120.839 28.444 120.69 28.22C120.541 27.9773 120.466 27.716 120.466 27.436C120.466 27.156 120.541 26.8853 120.69 26.624C120.839 26.344 121.091 26.1387 121.446 26.008C122.305 25.6533 123.126 25.4013 123.91 25.252C124.713 25.1027 125.441 25.028 126.094 25.028C127.438 25.028 128.539 25.2333 129.398 25.644C130.275 26.0547 130.929 26.68 131.358 27.52C131.787 28.3413 132.002 29.4053 132.002 30.712V37.432C132.002 38.0107 131.862 38.4587 131.582 38.776C131.302 39.0747 130.901 39.224 130.378 39.224C129.855 39.224 129.445 39.0747 129.146 38.776C128.866 38.4587 128.726 38.0107 128.726 37.432V36.088H128.95C128.819 36.7413 128.558 37.3107 128.166 37.796C127.793 38.2627 127.317 38.6267 126.738 38.888C126.159 39.1493 125.497 39.28 124.75 39.28Z" fill="#DB3022"/>
<defs>
<clipPath id="clip0_28158_4559">
<rect width="50" height="50" fill="white"/>
</clipPath>
</defs>
</svg>
