<svg width="118" height="44" viewBox="0 0 118 44" fill="none" xmlns="http://www.w3.org/2000/svg">
<g clip-path="url(#clip0_28158_3782)">
<path d="M37.7571 40.0107L35.5241 14.7107C35.3564 12.8049 33.7861 11.3667 31.8721 11.3667C31.4324 11.3667 31.0746 11.7242 31.0746 12.1642V16.1086C31.0746 16.4991 30.7794 16.8401 30.3899 16.8648C29.9627 16.8923 29.6079 16.5541 29.6079 16.1333V7.60833C29.6079 3.41275 26.1952 0 21.9996 0C17.804 0 14.3913 3.41275 14.3913 7.60833V11.3667H12.1271C10.2131 11.3667 8.64285 12.8049 8.4751 14.7107L6.2421 40.0107C6.05418 42.1488 7.74021 44 9.89502 44H34.1042C36.2593 44 37.945 42.1485 37.7571 40.0107ZM17.7829 39.1417H12.4663C12.0613 39.1417 11.7329 38.8133 11.7329 38.4083C11.7329 38.0033 12.0613 37.675 12.4663 37.675H17.7829C18.1879 37.675 18.5163 38.0033 18.5163 38.4083C18.5163 38.8133 18.1879 39.1417 17.7829 39.1417ZM17.7829 35.475H12.4663C12.0613 35.475 11.7329 35.1467 11.7329 34.7417C11.7329 34.3367 12.0613 34.0083 12.4663 34.0083H17.7829C18.1879 34.0083 18.5163 34.3367 18.5163 34.7417C18.5163 35.1467 18.1879 35.475 17.7829 35.475ZM28.1413 11.3667H18.1221C17.6821 11.3667 17.3246 11.7242 17.3246 12.1642V16.1086C17.3246 16.4991 17.0294 16.8401 16.6398 16.8648C16.2127 16.8923 15.8579 16.5541 15.8579 16.1333V7.60833C15.8579 4.22217 18.6134 1.46667 21.9996 1.46667C25.3858 1.46667 28.1413 4.22217 28.1413 7.60833V11.3667Z" fill="#DB3022"/>
</g>
<path d="M50.6363 34C50.1083 34 49.7003 33.864 49.4123 33.592C49.1403 33.304 49.0043 32.896 49.0043 32.368V18.712C49.0043 18.184 49.1403 17.784 49.4123 17.512C49.7003 17.224 50.1083 17.08 50.6363 17.08H56.3963C57.5803 17.08 58.5883 17.256 59.4203 17.608C60.2523 17.96 60.8843 18.464 61.3163 19.12C61.7643 19.776 61.9883 20.56 61.9883 21.472C61.9883 22.496 61.6923 23.36 61.1003 24.064C60.5083 24.768 59.7003 25.24 58.6763 25.48V25.12C59.8603 25.296 60.7803 25.744 61.4363 26.464C62.0923 27.184 62.4203 28.12 62.4203 29.272C62.4203 30.776 61.9083 31.944 60.8843 32.776C59.8763 33.592 58.4683 34 56.6603 34H50.6363ZM51.9563 31.672H56.2763C57.3643 31.672 58.1643 31.464 58.6763 31.048C59.1883 30.616 59.4443 29.976 59.4443 29.128C59.4443 28.264 59.1883 27.624 58.6763 27.208C58.1643 26.792 57.3643 26.584 56.2763 26.584H51.9563V31.672ZM51.9563 24.256H55.8683C56.9243 24.256 57.7083 24.056 58.2203 23.656C58.7483 23.24 59.0123 22.632 59.0123 21.832C59.0123 21.032 58.7483 20.432 58.2203 20.032C57.7083 19.616 56.9243 19.408 55.8683 19.408H51.9563V24.256ZM69.2477 34.24C67.9197 34.24 66.9197 33.864 66.2477 33.112C65.5757 32.344 65.2397 31.224 65.2397 29.752V18.4C65.2397 17.904 65.3677 17.528 65.6237 17.272C65.8797 17.016 66.2477 16.888 66.7277 16.888C67.2077 16.888 67.5757 17.016 67.8317 17.272C68.1037 17.528 68.2397 17.904 68.2397 18.4V29.608C68.2397 30.344 68.3917 30.888 68.6957 31.24C69.0157 31.592 69.4637 31.768 70.0397 31.768C70.1677 31.768 70.2877 31.768 70.3997 31.768C70.5117 31.752 70.6237 31.736 70.7357 31.72C70.9597 31.688 71.1117 31.752 71.1917 31.912C71.2717 32.056 71.3117 32.36 71.3117 32.824C71.3117 33.224 71.2317 33.536 71.0717 33.76C70.9117 33.984 70.6477 34.12 70.2797 34.168C70.1197 34.184 69.9517 34.2 69.7757 34.216C69.5997 34.232 69.4237 34.24 69.2477 34.24ZM76.7678 34.24C75.9198 34.24 75.1598 34.08 74.4878 33.76C73.8318 33.424 73.3118 32.976 72.9277 32.416C72.5598 31.856 72.3758 31.224 72.3758 30.52C72.3758 29.656 72.5998 28.976 73.0478 28.48C73.4958 27.968 74.2238 27.6 75.2318 27.376C76.2398 27.152 77.5918 27.04 79.2878 27.04H80.4878V28.768H79.3118C78.3198 28.768 77.5278 28.816 76.9358 28.912C76.3438 29.008 75.9198 29.176 75.6638 29.416C75.4238 29.64 75.3038 29.96 75.3038 30.376C75.3038 30.904 75.4878 31.336 75.8558 31.672C76.2238 32.008 76.7358 32.176 77.3918 32.176C77.9198 32.176 78.3838 32.056 78.7838 31.816C79.1998 31.56 79.5278 31.216 79.7678 30.784C80.0078 30.352 80.1278 29.856 80.1278 29.296V26.536C80.1278 25.736 79.9518 25.16 79.5998 24.808C79.2478 24.456 78.6558 24.28 77.8238 24.28C77.3598 24.28 76.8558 24.336 76.3118 24.448C75.7838 24.56 75.2238 24.752 74.6318 25.024C74.3278 25.168 74.0558 25.208 73.8158 25.144C73.5918 25.08 73.4158 24.952 73.2878 24.76C73.1598 24.552 73.0958 24.328 73.0958 24.088C73.0958 23.848 73.1598 23.616 73.2878 23.392C73.4158 23.152 73.6318 22.976 73.9358 22.864C74.6718 22.56 75.3758 22.344 76.0478 22.216C76.7358 22.088 77.3598 22.024 77.9198 22.024C79.0718 22.024 80.0158 22.2 80.7518 22.552C81.5038 22.904 82.0638 23.44 82.4318 24.16C82.7998 24.864 82.9838 25.776 82.9838 26.896V32.656C82.9838 33.152 82.8638 33.536 82.6238 33.808C82.3838 34.064 82.0398 34.192 81.5918 34.192C81.1438 34.192 80.7918 34.064 80.5358 33.808C80.2958 33.536 80.1758 33.152 80.1758 32.656V31.504H80.3678C80.2558 32.064 80.0318 32.552 79.6958 32.968C79.3758 33.368 78.9678 33.68 78.4718 33.904C77.9758 34.128 77.4078 34.24 76.7678 34.24ZM87.5168 34.192C87.0368 34.192 86.6688 34.064 86.4128 33.808C86.1568 33.536 86.0288 33.152 86.0288 32.656V23.584C86.0288 23.088 86.1568 22.712 86.4128 22.456C86.6688 22.2 87.0288 22.072 87.4928 22.072C87.9568 22.072 88.3168 22.2 88.5728 22.456C88.8288 22.712 88.9568 23.088 88.9568 23.584V25.216L88.6928 24.616C89.0448 23.768 89.5888 23.128 90.3248 22.696C91.0768 22.248 91.9248 22.024 92.8688 22.024C93.8128 22.024 94.5888 22.2 95.1968 22.552C95.8048 22.904 96.2608 23.44 96.5648 24.16C96.8688 24.864 97.0208 25.76 97.0208 26.848V32.656C97.0208 33.152 96.8928 33.536 96.6368 33.808C96.3808 34.064 96.0128 34.192 95.5328 34.192C95.0528 34.192 94.6768 34.064 94.4048 33.808C94.1488 33.536 94.0208 33.152 94.0208 32.656V26.992C94.0208 26.08 93.8448 25.416 93.4928 25C93.1568 24.584 92.6288 24.376 91.9088 24.376C91.0288 24.376 90.3248 24.656 89.7968 25.216C89.2848 25.76 89.0288 26.488 89.0288 27.4V32.656C89.0288 33.68 88.5248 34.192 87.5168 34.192ZM98.6278 38.536C98.2758 38.568 97.9878 38.512 97.7638 38.368C97.5398 38.24 97.3878 38.072 97.3078 37.864C97.2118 37.656 97.1798 37.44 97.2118 37.216C97.2438 36.992 97.3398 36.792 97.4998 36.616C97.6438 36.456 97.8438 36.368 98.0998 36.352C98.8198 36.288 99.3398 36.08 99.6598 35.728C99.9958 35.392 100.164 34.872 100.164 34.168V23.584C100.164 23.088 100.292 22.712 100.548 22.456C100.82 22.2 101.196 22.072 101.676 22.072C102.156 22.072 102.524 22.2 102.78 22.456C103.036 22.712 103.164 23.088 103.164 23.584V33.904C103.164 34.928 102.996 35.768 102.66 36.424C102.34 37.08 101.844 37.576 101.172 37.912C100.516 38.248 99.6678 38.456 98.6278 38.536ZM101.652 19.864C101.092 19.864 100.652 19.728 100.332 19.456C100.028 19.168 99.8758 18.776 99.8758 18.28C99.8758 17.768 100.028 17.376 100.332 17.104C100.652 16.832 101.092 16.696 101.652 16.696C102.228 16.696 102.668 16.832 102.972 17.104C103.276 17.376 103.428 17.768 103.428 18.28C103.428 18.776 103.276 19.168 102.972 19.456C102.668 19.728 102.228 19.864 101.652 19.864ZM110.143 34.24C109.295 34.24 108.535 34.08 107.863 33.76C107.207 33.424 106.687 32.976 106.303 32.416C105.935 31.856 105.751 31.224 105.751 30.52C105.751 29.656 105.975 28.976 106.423 28.48C106.871 27.968 107.599 27.6 108.607 27.376C109.615 27.152 110.967 27.04 112.663 27.04H113.863V28.768H112.687C111.695 28.768 110.903 28.816 110.311 28.912C109.719 29.008 109.295 29.176 109.039 29.416C108.799 29.64 108.679 29.96 108.679 30.376C108.679 30.904 108.863 31.336 109.231 31.672C109.599 32.008 110.111 32.176 110.767 32.176C111.295 32.176 111.759 32.056 112.159 31.816C112.575 31.56 112.903 31.216 113.143 30.784C113.383 30.352 113.503 29.856 113.503 29.296V26.536C113.503 25.736 113.327 25.16 112.975 24.808C112.623 24.456 112.031 24.28 111.199 24.28C110.735 24.28 110.231 24.336 109.687 24.448C109.159 24.56 108.599 24.752 108.007 25.024C107.703 25.168 107.431 25.208 107.191 25.144C106.967 25.08 106.791 24.952 106.663 24.76C106.535 24.552 106.471 24.328 106.471 24.088C106.471 23.848 106.535 23.616 106.663 23.392C106.791 23.152 107.007 22.976 107.311 22.864C108.047 22.56 108.751 22.344 109.423 22.216C110.111 22.088 110.735 22.024 111.295 22.024C112.447 22.024 113.391 22.2 114.127 22.552C114.879 22.904 115.439 23.44 115.807 24.16C116.175 24.864 116.359 25.776 116.359 26.896V32.656C116.359 33.152 116.239 33.536 115.999 33.808C115.759 34.064 115.415 34.192 114.967 34.192C114.519 34.192 114.167 34.064 113.911 33.808C113.671 33.536 113.551 33.152 113.551 32.656V31.504H113.743C113.631 32.064 113.407 32.552 113.071 32.968C112.751 33.368 112.343 33.68 111.847 33.904C111.351 34.128 110.783 34.24 110.143 34.24Z" fill="#DB3022"/>
<defs>
<clipPath id="clip0_28158_3782">
<rect width="44" height="44" fill="white"/>
</clipPath>
</defs>
</svg>
