<svg width="206" height="177" viewBox="0 0 206 177" fill="none" xmlns="http://www.w3.org/2000/svg">
<path opacity="0.8" d="M4.8 170.112C4.56533 170.112 4.384 170.048 4.256 169.92C4.128 169.781 4.064 169.584 4.064 169.328V164.16L4.384 165.152L0.416 159.648C0.309333 159.499 0.256 159.344 0.256 159.184C0.266667 159.013 0.330667 158.875 0.448 158.768C0.565333 158.661 0.725333 158.608 0.928 158.608C1.088 158.608 1.232 158.645 1.36 158.72C1.488 158.795 1.61067 158.917 1.728 159.088L5.024 163.632H4.656L7.952 159.088C8.06933 158.907 8.18667 158.784 8.304 158.72C8.42133 158.645 8.57067 158.608 8.752 158.608C8.944 158.608 9.09333 158.661 9.2 158.768C9.31733 158.864 9.376 158.992 9.376 159.152C9.38667 159.312 9.328 159.477 9.2 159.648L5.232 165.152L5.552 164.16V169.328C5.552 169.851 5.30133 170.112 4.8 170.112ZM12.8081 170.144C12.0401 170.144 11.3735 169.979 10.8081 169.648C10.2428 169.317 9.80546 168.848 9.49613 168.24C9.18679 167.632 9.03213 166.917 9.03213 166.096C9.03213 165.477 9.11746 164.923 9.28813 164.432C9.46946 163.931 9.72546 163.504 10.0561 163.152C10.3868 162.8 10.7815 162.533 11.2401 162.352C11.7095 162.16 12.2321 162.064 12.8081 162.064C13.5761 162.064 14.2428 162.229 14.8081 162.56C15.3735 162.891 15.8108 163.36 16.1201 163.968C16.4295 164.565 16.5841 165.275 16.5841 166.096C16.5841 166.715 16.4935 167.275 16.3121 167.776C16.1415 168.277 15.8908 168.704 15.5601 169.056C15.2295 169.408 14.8295 169.68 14.3601 169.872C13.9015 170.053 13.3841 170.144 12.8081 170.144ZM12.8081 168.992C13.2775 168.992 13.6828 168.88 14.0241 168.656C14.3761 168.432 14.6428 168.107 14.8241 167.68C15.0161 167.253 15.1121 166.725 15.1121 166.096C15.1121 165.157 14.9041 164.443 14.4881 163.952C14.0721 163.461 13.5121 163.216 12.8081 163.216C12.3495 163.216 11.9441 163.328 11.5921 163.552C11.2508 163.765 10.9841 164.085 10.7921 164.512C10.6001 164.939 10.5041 165.467 10.5041 166.096C10.5041 167.035 10.7121 167.755 11.1281 168.256C11.5548 168.747 12.1148 168.992 12.8081 168.992ZM21.2333 170.144C20.6039 170.144 20.0759 170.027 19.6493 169.792C19.2333 169.557 18.9239 169.211 18.7213 168.752C18.5186 168.293 18.4173 167.717 18.4173 167.024V162.832C18.4173 162.587 18.4759 162.405 18.5933 162.288C18.7213 162.16 18.9026 162.096 19.1373 162.096C19.3719 162.096 19.5533 162.16 19.6813 162.288C19.8093 162.405 19.8733 162.587 19.8733 162.832V167.024C19.8733 167.685 20.0066 168.176 20.2733 168.496C20.5399 168.805 20.9613 168.96 21.5373 168.96C22.1773 168.96 22.6946 168.747 23.0893 168.32C23.4946 167.893 23.6973 167.328 23.6973 166.624V162.832C23.6973 162.587 23.7559 162.405 23.8733 162.288C24.0013 162.16 24.1826 162.096 24.4173 162.096C24.6519 162.096 24.8333 162.16 24.9613 162.288C25.0893 162.405 25.1533 162.587 25.1533 162.832V169.36C25.1533 169.861 24.9186 170.112 24.4493 170.112C24.2146 170.112 24.0333 170.048 23.9053 169.92C23.7879 169.792 23.7293 169.605 23.7293 169.36V167.968L23.9373 168.24C23.7239 168.859 23.3773 169.333 22.8973 169.664C22.4279 169.984 21.8733 170.144 21.2333 170.144ZM34.644 170.144C33.9613 170.144 33.3587 169.984 32.836 169.664C32.324 169.333 31.924 168.864 31.636 168.256C31.348 167.637 31.204 166.917 31.204 166.096C31.204 165.264 31.3427 164.549 31.62 163.952C31.908 163.344 32.308 162.88 32.82 162.56C33.3427 162.229 33.9507 162.064 34.644 162.064C35.3373 162.064 35.9347 162.24 36.436 162.592C36.9373 162.933 37.2733 163.392 37.444 163.968H37.268V159.344C37.268 159.099 37.3267 158.917 37.444 158.8C37.572 158.672 37.7533 158.608 37.988 158.608C38.2227 158.608 38.404 158.672 38.532 158.8C38.66 158.917 38.724 159.099 38.724 159.344V169.36C38.724 169.605 38.66 169.792 38.532 169.92C38.404 170.048 38.2227 170.112 37.988 170.112C37.764 170.112 37.588 170.048 37.46 169.92C37.332 169.792 37.268 169.605 37.268 169.36V167.904L37.444 168.192C37.284 168.789 36.948 169.264 36.436 169.616C35.9347 169.968 35.3373 170.144 34.644 170.144ZM34.98 168.992C35.4493 168.992 35.8547 168.88 36.196 168.656C36.548 168.432 36.8147 168.107 36.996 167.68C37.188 167.253 37.284 166.725 37.284 166.096C37.284 165.157 37.076 164.443 36.66 163.952C36.244 163.461 35.684 163.216 34.98 163.216C34.5213 163.216 34.116 163.328 33.764 163.552C33.4227 163.765 33.156 164.085 32.964 164.512C32.772 164.939 32.676 165.467 32.676 166.096C32.676 167.035 32.884 167.755 33.3 168.256C33.7267 168.747 34.2867 168.992 34.98 168.992ZM44.3706 170.144C43.6026 170.144 42.936 169.979 42.3706 169.648C41.8053 169.317 41.368 168.848 41.0586 168.24C40.7493 167.632 40.5946 166.917 40.5946 166.096C40.5946 165.477 40.68 164.923 40.8506 164.432C41.032 163.931 41.288 163.504 41.6186 163.152C41.9493 162.8 42.344 162.533 42.8026 162.352C43.272 162.16 43.7946 162.064 44.3706 162.064C45.1386 162.064 45.8053 162.229 46.3706 162.56C46.936 162.891 47.3733 163.36 47.6826 163.968C47.992 164.565 48.1466 165.275 48.1466 166.096C48.1466 166.715 48.056 167.275 47.8746 167.776C47.704 168.277 47.4533 168.704 47.1226 169.056C46.792 169.408 46.392 169.68 45.9226 169.872C45.464 170.053 44.9466 170.144 44.3706 170.144ZM44.3706 168.992C44.84 168.992 45.2453 168.88 45.5866 168.656C45.9386 168.432 46.2053 168.107 46.3866 167.68C46.5786 167.253 46.6746 166.725 46.6746 166.096C46.6746 165.157 46.4666 164.443 46.0506 163.952C45.6346 163.461 45.0746 163.216 44.3706 163.216C43.912 163.216 43.5066 163.328 43.1546 163.552C42.8133 163.765 42.5466 164.085 42.3546 164.512C42.1626 164.939 42.0666 165.467 42.0666 166.096C42.0666 167.035 42.2746 167.755 42.6906 168.256C43.1173 168.747 43.6773 168.992 44.3706 168.992ZM50.7318 170.112C50.5078 170.112 50.3318 170.048 50.2038 169.92C50.0758 169.792 50.0118 169.605 50.0118 169.36V162.832C50.0118 162.587 50.0758 162.405 50.2038 162.288C50.3318 162.16 50.5078 162.096 50.7318 162.096C50.9558 162.096 51.1264 162.16 51.2438 162.288C51.3718 162.405 51.4358 162.587 51.4358 162.832V164.144L51.2598 163.904C51.4838 163.296 51.8464 162.837 52.3478 162.528C52.8598 162.219 53.4411 162.064 54.0918 162.064C54.7211 162.064 55.2384 162.176 55.6438 162.4C56.0491 162.624 56.3531 162.965 56.5558 163.424C56.7584 163.883 56.8598 164.464 56.8598 165.168V169.36C56.8598 169.605 56.7958 169.792 56.6678 169.92C56.5504 170.048 56.3744 170.112 56.1398 170.112C55.9051 170.112 55.7238 170.048 55.5958 169.92C55.4678 169.792 55.4038 169.605 55.4038 169.36V165.248C55.4038 164.555 55.2704 164.048 55.0038 163.728C54.7371 163.408 54.3104 163.248 53.7238 163.248C53.0411 163.248 52.4918 163.461 52.0758 163.888C51.6704 164.304 51.4678 164.869 51.4678 165.584V169.36C51.4678 169.861 51.2224 170.112 50.7318 170.112ZM59.824 163.312C59.6853 163.312 59.5627 163.264 59.456 163.168C59.36 163.061 59.3013 162.923 59.28 162.752L59.024 159.472C59.0027 159.227 59.0667 159.024 59.216 158.864C59.376 158.693 59.5733 158.608 59.808 158.608C59.968 158.608 60.1067 158.645 60.224 158.72C60.352 158.795 60.448 158.896 60.512 159.024C60.5867 159.152 60.6133 159.301 60.592 159.472L60.352 162.752C60.3413 162.923 60.2827 163.061 60.176 163.168C60.08 163.264 59.9627 163.312 59.824 163.312ZM66.0094 170.144C65.38 170.144 64.852 170.032 64.4254 169.808C64.0094 169.584 63.6947 169.259 63.4814 168.832C63.2787 168.405 63.1774 167.883 63.1774 167.264V163.328H62.1534C61.9614 163.328 61.812 163.28 61.7054 163.184C61.5987 163.077 61.5454 162.939 61.5454 162.768C61.5454 162.587 61.5987 162.448 61.7054 162.352C61.812 162.256 61.9614 162.208 62.1534 162.208H63.1774V160.464C63.1774 160.219 63.2414 160.037 63.3694 159.92C63.4974 159.792 63.6787 159.728 63.9134 159.728C64.148 159.728 64.324 159.792 64.4414 159.92C64.5694 160.037 64.6334 160.219 64.6334 160.464V162.208H66.5694C66.772 162.208 66.9267 162.256 67.0334 162.352C67.14 162.448 67.1934 162.587 67.1934 162.768C67.1934 162.939 67.14 163.077 67.0334 163.184C66.9267 163.28 66.772 163.328 66.5694 163.328H64.6334V167.136C64.6334 167.723 64.756 168.165 65.0014 168.464C65.2467 168.763 65.652 168.912 66.2174 168.912C66.42 168.912 66.5907 168.896 66.7294 168.864C66.868 168.821 66.9907 168.8 67.0974 168.8C67.1934 168.789 67.2734 168.821 67.3374 168.896C67.412 168.971 67.4494 169.109 67.4494 169.312C67.4494 169.461 67.4227 169.6 67.3694 169.728C67.3267 169.845 67.236 169.925 67.0974 169.968C66.9694 170.011 66.7987 170.048 66.5854 170.08C66.372 170.123 66.18 170.144 66.0094 170.144ZM73.4036 170.112C73.1796 170.112 73.0036 170.048 72.8756 169.92C72.7476 169.792 72.6836 169.605 72.6836 169.36V159.344C72.6836 159.099 72.7476 158.917 72.8756 158.8C73.0036 158.672 73.1796 158.608 73.4036 158.608C73.6383 158.608 73.8196 158.672 73.9476 158.8C74.0756 158.917 74.1396 159.099 74.1396 159.344V163.904H73.9316C74.1556 163.296 74.5183 162.837 75.0196 162.528C75.5316 162.219 76.113 162.064 76.7636 162.064C77.393 162.064 77.9103 162.181 78.3156 162.416C78.721 162.64 79.025 162.981 79.2276 163.44C79.4303 163.899 79.5316 164.475 79.5316 165.168V169.36C79.5316 169.605 79.4676 169.792 79.3396 169.92C79.2223 170.048 79.0463 170.112 78.8116 170.112C78.577 170.112 78.3956 170.048 78.2676 169.92C78.1396 169.792 78.0756 169.605 78.0756 169.36V165.248C78.0756 164.555 77.9423 164.048 77.6756 163.728C77.409 163.408 76.9823 163.248 76.3956 163.248C75.713 163.248 75.1636 163.461 74.7476 163.888C74.3423 164.304 74.1396 164.869 74.1396 165.584V169.36C74.1396 169.861 73.8943 170.112 73.4036 170.112ZM84.3199 170.144C83.7865 170.144 83.3012 170.037 82.8639 169.824C82.4372 169.611 82.1012 169.323 81.8559 168.96C81.6212 168.597 81.5039 168.192 81.5039 167.744C81.5039 167.168 81.6479 166.715 81.9359 166.384C82.2239 166.053 82.7092 165.819 83.3919 165.68C84.0745 165.531 84.9919 165.456 86.1439 165.456H86.8959V166.384H86.1759C85.3545 166.384 84.7039 166.421 84.2239 166.496C83.7545 166.571 83.4239 166.704 83.2319 166.896C83.0399 167.077 82.9439 167.333 82.9439 167.664C82.9439 168.08 83.0879 168.421 83.3759 168.688C83.6745 168.955 84.0799 169.088 84.5919 169.088C84.9972 169.088 85.3545 168.992 85.6639 168.8C85.9732 168.597 86.2185 168.331 86.3999 168C86.5812 167.659 86.6719 167.269 86.6719 166.832V164.992C86.6719 164.363 86.5439 163.909 86.2879 163.632C86.0319 163.344 85.5999 163.2 84.9919 163.2C84.6399 163.2 84.2772 163.248 83.9039 163.344C83.5305 163.44 83.1412 163.589 82.7359 163.792C82.5759 163.867 82.4372 163.893 82.3199 163.872C82.2025 163.84 82.1065 163.776 82.0319 163.68C81.9679 163.573 81.9305 163.461 81.9199 163.344C81.9199 163.216 81.9465 163.093 81.9999 162.976C82.0639 162.859 82.1705 162.773 82.3199 162.72C82.7892 162.485 83.2532 162.32 83.7119 162.224C84.1812 162.117 84.6185 162.064 85.0239 162.064C85.7172 162.064 86.2879 162.176 86.7359 162.4C87.1839 162.613 87.5199 162.949 87.7439 163.408C87.9679 163.856 88.0799 164.432 88.0799 165.136V169.36C88.0799 169.605 88.0212 169.792 87.9039 169.92C87.7865 170.048 87.6159 170.112 87.3919 170.112C87.1785 170.112 87.0079 170.048 86.8799 169.92C86.7625 169.792 86.7039 169.605 86.7039 169.36V168.224H86.8479C86.7625 168.619 86.6025 168.96 86.3679 169.248C86.1332 169.536 85.8399 169.76 85.4879 169.92C85.1465 170.069 84.7572 170.144 84.3199 170.144ZM93.253 170.112C93.0503 170.112 92.8743 170.059 92.725 169.952C92.5757 169.845 92.4477 169.675 92.341 169.44L89.621 163.104C89.5463 162.923 89.5197 162.757 89.541 162.608C89.5623 162.459 89.6317 162.336 89.749 162.24C89.877 162.144 90.0477 162.096 90.261 162.096C90.4423 162.096 90.5863 162.139 90.693 162.224C90.7997 162.309 90.901 162.459 90.997 162.672L93.509 168.864H93.061L95.637 162.672C95.7223 162.459 95.8183 162.309 95.925 162.224C96.0423 162.139 96.2023 162.096 96.405 162.096C96.5863 162.096 96.725 162.144 96.821 162.24C96.9277 162.336 96.9917 162.459 97.013 162.608C97.0343 162.757 97.0023 162.917 96.917 163.088L94.181 169.44C94.085 169.675 93.957 169.845 93.797 169.952C93.6477 170.059 93.4663 170.112 93.253 170.112ZM102.049 170.144C101.207 170.144 100.481 169.984 99.8733 169.664C99.2759 169.333 98.8119 168.869 98.4813 168.272C98.1506 167.664 97.9853 166.949 97.9853 166.128C97.9853 165.317 98.1453 164.608 98.4653 164C98.7959 163.392 99.2439 162.917 99.8093 162.576C100.385 162.235 101.041 162.064 101.777 162.064C102.3 162.064 102.769 162.155 103.185 162.336C103.612 162.507 103.975 162.757 104.273 163.088C104.572 163.419 104.796 163.824 104.945 164.304C105.105 164.773 105.185 165.307 105.185 165.904C105.185 166.075 105.132 166.208 105.025 166.304C104.929 166.389 104.785 166.432 104.593 166.432H99.1213V165.504H104.225L103.953 165.728C103.953 165.173 103.868 164.704 103.697 164.32C103.537 163.925 103.297 163.627 102.977 163.424C102.668 163.221 102.279 163.12 101.809 163.12C101.297 163.12 100.86 163.243 100.497 163.488C100.135 163.723 99.8573 164.059 99.6653 164.496C99.4733 164.923 99.3773 165.419 99.3773 165.984V166.08C99.3773 167.04 99.6066 167.765 100.065 168.256C100.524 168.747 101.185 168.992 102.049 168.992C102.391 168.992 102.737 168.949 103.089 168.864C103.452 168.779 103.799 168.624 104.129 168.4C104.289 168.304 104.433 168.261 104.561 168.272C104.7 168.272 104.812 168.315 104.897 168.4C104.983 168.475 105.036 168.571 105.057 168.688C105.079 168.795 105.063 168.912 105.009 169.04C104.956 169.168 104.855 169.28 104.705 169.376C104.353 169.621 103.932 169.813 103.441 169.952C102.961 170.08 102.497 170.144 102.049 170.144ZM113.648 170.144C113.115 170.144 112.629 170.037 112.192 169.824C111.765 169.611 111.429 169.323 111.184 168.96C110.949 168.597 110.832 168.192 110.832 167.744C110.832 167.168 110.976 166.715 111.264 166.384C111.552 166.053 112.037 165.819 112.72 165.68C113.403 165.531 114.32 165.456 115.472 165.456H116.224V166.384H115.504C114.683 166.384 114.032 166.421 113.552 166.496C113.083 166.571 112.752 166.704 112.56 166.896C112.368 167.077 112.272 167.333 112.272 167.664C112.272 168.08 112.416 168.421 112.704 168.688C113.003 168.955 113.408 169.088 113.92 169.088C114.325 169.088 114.683 168.992 114.992 168.8C115.301 168.597 115.547 168.331 115.728 168C115.909 167.659 116 167.269 116 166.832V164.992C116 164.363 115.872 163.909 115.616 163.632C115.36 163.344 114.928 163.2 114.32 163.2C113.968 163.2 113.605 163.248 113.232 163.344C112.859 163.44 112.469 163.589 112.064 163.792C111.904 163.867 111.765 163.893 111.648 163.872C111.531 163.84 111.435 163.776 111.36 163.68C111.296 163.573 111.259 163.461 111.248 163.344C111.248 163.216 111.275 163.093 111.328 162.976C111.392 162.859 111.499 162.773 111.648 162.72C112.117 162.485 112.581 162.32 113.04 162.224C113.509 162.117 113.947 162.064 114.352 162.064C115.045 162.064 115.616 162.176 116.064 162.4C116.512 162.613 116.848 162.949 117.072 163.408C117.296 163.856 117.408 164.432 117.408 165.136V169.36C117.408 169.605 117.349 169.792 117.232 169.92C117.115 170.048 116.944 170.112 116.72 170.112C116.507 170.112 116.336 170.048 116.208 169.92C116.091 169.792 116.032 169.605 116.032 169.36V168.224H116.176C116.091 168.619 115.931 168.96 115.696 169.248C115.461 169.536 115.168 169.76 114.816 169.92C114.475 170.069 114.085 170.144 113.648 170.144ZM124.591 172.992C124.367 172.992 124.191 172.928 124.063 172.8C123.935 172.672 123.871 172.491 123.871 172.256V162.832C123.871 162.587 123.935 162.405 124.063 162.288C124.191 162.16 124.367 162.096 124.591 162.096C124.826 162.096 125.002 162.16 125.119 162.288C125.247 162.405 125.311 162.587 125.311 162.832V164.288L125.135 164C125.306 163.413 125.642 162.944 126.143 162.592C126.644 162.24 127.247 162.064 127.951 162.064C128.644 162.064 129.247 162.229 129.759 162.56C130.271 162.88 130.671 163.344 130.959 163.952C131.247 164.549 131.391 165.264 131.391 166.096C131.391 166.917 131.247 167.637 130.959 168.256C130.682 168.864 130.282 169.333 129.759 169.664C129.247 169.984 128.644 170.144 127.951 170.144C127.258 170.144 126.66 169.968 126.159 169.616C125.658 169.264 125.322 168.8 125.151 168.224H125.327V172.256C125.327 172.491 125.263 172.672 125.135 172.8C125.007 172.928 124.826 172.992 124.591 172.992ZM127.615 168.992C128.074 168.992 128.474 168.88 128.815 168.656C129.167 168.432 129.439 168.107 129.631 167.68C129.823 167.253 129.919 166.725 129.919 166.096C129.919 165.157 129.711 164.443 129.295 163.952C128.879 163.461 128.319 163.216 127.615 163.216C127.146 163.216 126.735 163.328 126.383 163.552C126.042 163.765 125.775 164.085 125.583 164.512C125.402 164.939 125.311 165.467 125.311 166.096C125.311 167.035 125.519 167.755 125.935 168.256C126.351 168.747 126.911 168.992 127.615 168.992ZM134.014 170.112C133.768 170.112 133.582 170.048 133.454 169.92C133.326 169.792 133.262 169.605 133.262 169.36V162.832C133.262 162.587 133.326 162.405 133.454 162.288C133.582 162.16 133.758 162.096 133.982 162.096C134.206 162.096 134.376 162.16 134.494 162.288C134.622 162.405 134.686 162.587 134.686 162.832V164.064H134.526C134.696 163.424 135.016 162.939 135.486 162.608C135.955 162.277 136.547 162.091 137.262 162.048C137.432 162.037 137.571 162.08 137.678 162.176C137.784 162.261 137.843 162.411 137.854 162.624C137.864 162.827 137.816 162.992 137.71 163.12C137.603 163.237 137.438 163.307 137.214 163.328L136.926 163.344C136.222 163.419 135.678 163.648 135.294 164.032C134.92 164.416 134.734 164.944 134.734 165.616V169.36C134.734 169.605 134.67 169.792 134.542 169.92C134.424 170.048 134.248 170.112 134.014 170.112ZM142.308 170.144C141.54 170.144 140.873 169.979 140.308 169.648C139.743 169.317 139.305 168.848 138.996 168.24C138.687 167.632 138.532 166.917 138.532 166.096C138.532 165.477 138.617 164.923 138.788 164.432C138.969 163.931 139.225 163.504 139.556 163.152C139.887 162.8 140.281 162.533 140.74 162.352C141.209 162.16 141.732 162.064 142.308 162.064C143.076 162.064 143.743 162.229 144.308 162.56C144.873 162.891 145.311 163.36 145.62 163.968C145.929 164.565 146.084 165.275 146.084 166.096C146.084 166.715 145.993 167.275 145.812 167.776C145.641 168.277 145.391 168.704 145.06 169.056C144.729 169.408 144.329 169.68 143.86 169.872C143.401 170.053 142.884 170.144 142.308 170.144ZM142.308 168.992C142.777 168.992 143.183 168.88 143.524 168.656C143.876 168.432 144.143 168.107 144.324 167.68C144.516 167.253 144.612 166.725 144.612 166.096C144.612 165.157 144.404 164.443 143.988 163.952C143.572 163.461 143.012 163.216 142.308 163.216C141.849 163.216 141.444 163.328 141.092 163.552C140.751 163.765 140.484 164.085 140.292 164.512C140.1 164.939 140.004 165.467 140.004 166.096C140.004 167.035 140.212 167.755 140.628 168.256C141.055 168.747 141.615 168.992 142.308 168.992ZM150.925 170.144C150.243 170.144 149.64 169.984 149.117 169.664C148.605 169.333 148.205 168.864 147.917 168.256C147.629 167.637 147.485 166.917 147.485 166.096C147.485 165.264 147.624 164.549 147.901 163.952C148.189 163.344 148.589 162.88 149.101 162.56C149.624 162.229 150.232 162.064 150.925 162.064C151.619 162.064 152.216 162.24 152.717 162.592C153.219 162.933 153.555 163.392 153.725 163.968H153.549V159.344C153.549 159.099 153.608 158.917 153.725 158.8C153.853 158.672 154.035 158.608 154.269 158.608C154.504 158.608 154.685 158.672 154.813 158.8C154.941 158.917 155.005 159.099 155.005 159.344V169.36C155.005 169.605 154.941 169.792 154.813 169.92C154.685 170.048 154.504 170.112 154.269 170.112C154.045 170.112 153.869 170.048 153.741 169.92C153.613 169.792 153.549 169.605 153.549 169.36V167.904L153.725 168.192C153.565 168.789 153.229 169.264 152.717 169.616C152.216 169.968 151.619 170.144 150.925 170.144ZM151.261 168.992C151.731 168.992 152.136 168.88 152.477 168.656C152.829 168.432 153.096 168.107 153.277 167.68C153.469 167.253 153.565 166.725 153.565 166.096C153.565 165.157 153.357 164.443 152.941 163.952C152.525 163.461 151.965 163.216 151.261 163.216C150.803 163.216 150.397 163.328 150.045 163.552C149.704 163.765 149.437 164.085 149.245 164.512C149.053 164.939 148.957 165.467 148.957 166.096C148.957 167.035 149.165 167.755 149.581 168.256C150.008 168.747 150.568 168.992 151.261 168.992ZM160.124 170.144C159.495 170.144 158.967 170.027 158.54 169.792C158.124 169.557 157.815 169.211 157.612 168.752C157.409 168.293 157.308 167.717 157.308 167.024V162.832C157.308 162.587 157.367 162.405 157.484 162.288C157.612 162.16 157.793 162.096 158.028 162.096C158.263 162.096 158.444 162.16 158.572 162.288C158.7 162.405 158.764 162.587 158.764 162.832V167.024C158.764 167.685 158.897 168.176 159.164 168.496C159.431 168.805 159.852 168.96 160.428 168.96C161.068 168.96 161.585 168.747 161.98 168.32C162.385 167.893 162.588 167.328 162.588 166.624V162.832C162.588 162.587 162.647 162.405 162.764 162.288C162.892 162.16 163.073 162.096 163.308 162.096C163.543 162.096 163.724 162.16 163.852 162.288C163.98 162.405 164.044 162.587 164.044 162.832V169.36C164.044 169.861 163.809 170.112 163.34 170.112C163.105 170.112 162.924 170.048 162.796 169.92C162.679 169.792 162.62 169.605 162.62 169.36V167.968L162.828 168.24C162.615 168.859 162.268 169.333 161.788 169.664C161.319 169.984 160.764 170.144 160.124 170.144ZM169.763 170.144C168.973 170.144 168.291 169.979 167.715 169.648C167.139 169.307 166.696 168.832 166.387 168.224C166.077 167.605 165.923 166.88 165.923 166.048C165.923 165.429 166.008 164.875 166.179 164.384C166.36 163.893 166.616 163.477 166.947 163.136C167.277 162.784 167.677 162.517 168.147 162.336C168.627 162.155 169.165 162.064 169.763 162.064C170.136 162.064 170.531 162.123 170.947 162.24C171.363 162.357 171.747 162.549 172.099 162.816C172.216 162.901 172.291 163.003 172.323 163.12C172.355 163.227 172.355 163.339 172.323 163.456C172.301 163.573 172.248 163.675 172.163 163.76C172.088 163.835 171.987 163.877 171.859 163.888C171.741 163.899 171.613 163.861 171.475 163.776C171.219 163.584 170.947 163.445 170.659 163.36C170.381 163.275 170.115 163.232 169.859 163.232C169.464 163.232 169.112 163.296 168.803 163.424C168.504 163.552 168.248 163.739 168.035 163.984C167.832 164.219 167.677 164.512 167.571 164.864C167.464 165.205 167.411 165.605 167.411 166.064C167.411 166.971 167.624 167.685 168.051 168.208C168.477 168.72 169.08 168.976 169.859 168.976C170.115 168.976 170.381 168.939 170.659 168.864C170.936 168.779 171.208 168.64 171.475 168.448C171.613 168.363 171.741 168.331 171.859 168.352C171.976 168.363 172.072 168.411 172.147 168.496C172.232 168.571 172.285 168.667 172.307 168.784C172.328 168.891 172.317 169.003 172.275 169.12C172.243 169.237 172.168 169.333 172.051 169.408C171.709 169.664 171.336 169.851 170.931 169.968C170.525 170.085 170.136 170.144 169.763 170.144ZM177.072 170.144C176.443 170.144 175.915 170.032 175.488 169.808C175.072 169.584 174.757 169.259 174.544 168.832C174.341 168.405 174.24 167.883 174.24 167.264V163.328H173.216C173.024 163.328 172.875 163.28 172.768 163.184C172.661 163.077 172.608 162.939 172.608 162.768C172.608 162.587 172.661 162.448 172.768 162.352C172.875 162.256 173.024 162.208 173.216 162.208H174.24V160.464C174.24 160.219 174.304 160.037 174.432 159.92C174.56 159.792 174.741 159.728 174.976 159.728C175.211 159.728 175.387 159.792 175.504 159.92C175.632 160.037 175.696 160.219 175.696 160.464V162.208H177.632C177.835 162.208 177.989 162.256 178.096 162.352C178.203 162.448 178.256 162.587 178.256 162.768C178.256 162.939 178.203 163.077 178.096 163.184C177.989 163.28 177.835 163.328 177.632 163.328H175.696V167.136C175.696 167.723 175.819 168.165 176.064 168.464C176.309 168.763 176.715 168.912 177.28 168.912C177.483 168.912 177.653 168.896 177.792 168.864C177.931 168.821 178.053 168.8 178.16 168.8C178.256 168.789 178.336 168.821 178.4 168.896C178.475 168.971 178.512 169.109 178.512 169.312C178.512 169.461 178.485 169.6 178.432 169.728C178.389 169.845 178.299 169.925 178.16 169.968C178.032 170.011 177.861 170.048 177.648 170.08C177.435 170.123 177.243 170.144 177.072 170.144ZM185.538 172.992C185.367 172.992 185.223 172.944 185.106 172.848C184.999 172.763 184.935 172.64 184.914 172.48C184.903 172.331 184.935 172.171 185.01 172L186.098 169.536V170.144L183.074 163.104C182.999 162.923 182.973 162.757 182.994 162.608C183.015 162.459 183.085 162.336 183.202 162.24C183.33 162.144 183.501 162.096 183.714 162.096C183.895 162.096 184.039 162.139 184.146 162.224C184.253 162.309 184.354 162.459 184.45 162.672L186.962 168.864H186.514L189.074 162.672C189.159 162.459 189.261 162.309 189.378 162.224C189.495 162.139 189.655 162.096 189.858 162.096C190.039 162.096 190.178 162.144 190.274 162.24C190.381 162.336 190.445 162.459 190.466 162.608C190.487 162.757 190.455 162.917 190.37 163.088L186.338 172.416C186.231 172.64 186.119 172.789 186.002 172.864C185.895 172.949 185.741 172.992 185.538 172.992ZM195.487 170.144C194.644 170.144 193.919 169.984 193.311 169.664C192.713 169.333 192.249 168.869 191.919 168.272C191.588 167.664 191.423 166.949 191.423 166.128C191.423 165.317 191.583 164.608 191.903 164C192.233 163.392 192.681 162.917 193.247 162.576C193.823 162.235 194.479 162.064 195.215 162.064C195.737 162.064 196.207 162.155 196.623 162.336C197.049 162.507 197.412 162.757 197.711 163.088C198.009 163.419 198.233 163.824 198.383 164.304C198.543 164.773 198.623 165.307 198.623 165.904C198.623 166.075 198.569 166.208 198.463 166.304C198.367 166.389 198.223 166.432 198.031 166.432H192.559V165.504H197.663L197.391 165.728C197.391 165.173 197.305 164.704 197.135 164.32C196.975 163.925 196.735 163.627 196.415 163.424C196.105 163.221 195.716 163.12 195.247 163.12C194.735 163.12 194.297 163.243 193.935 163.488C193.572 163.723 193.295 164.059 193.103 164.496C192.911 164.923 192.815 165.419 192.815 165.984V166.08C192.815 167.04 193.044 167.765 193.503 168.256C193.961 168.747 194.623 168.992 195.487 168.992C195.828 168.992 196.175 168.949 196.527 168.864C196.889 168.779 197.236 168.624 197.567 168.4C197.727 168.304 197.871 168.261 197.999 168.272C198.137 168.272 198.249 168.315 198.335 168.4C198.42 168.475 198.473 168.571 198.495 168.688C198.516 168.795 198.5 168.912 198.447 169.04C198.393 169.168 198.292 169.28 198.143 169.376C197.791 169.621 197.369 169.813 196.879 169.952C196.399 170.08 195.935 170.144 195.487 170.144ZM203.65 170.144C203.021 170.144 202.493 170.032 202.066 169.808C201.65 169.584 201.335 169.259 201.122 168.832C200.919 168.405 200.818 167.883 200.818 167.264V163.328H199.794C199.602 163.328 199.453 163.28 199.346 163.184C199.239 163.077 199.186 162.939 199.186 162.768C199.186 162.587 199.239 162.448 199.346 162.352C199.453 162.256 199.602 162.208 199.794 162.208H200.818V160.464C200.818 160.219 200.882 160.037 201.01 159.92C201.138 159.792 201.319 159.728 201.554 159.728C201.789 159.728 201.965 159.792 202.082 159.92C202.21 160.037 202.274 160.219 202.274 160.464V162.208H204.21C204.413 162.208 204.567 162.256 204.674 162.352C204.781 162.448 204.834 162.587 204.834 162.768C204.834 162.939 204.781 163.077 204.674 163.184C204.567 163.28 204.413 163.328 204.21 163.328H202.274V167.136C202.274 167.723 202.397 168.165 202.642 168.464C202.887 168.763 203.293 168.912 203.858 168.912C204.061 168.912 204.231 168.896 204.37 168.864C204.509 168.821 204.631 168.8 204.738 168.8C204.834 168.789 204.914 168.821 204.978 168.896C205.053 168.971 205.09 169.109 205.09 169.312C205.09 169.461 205.063 169.6 205.01 169.728C204.967 169.845 204.877 169.925 204.738 169.968C204.61 170.011 204.439 170.048 204.226 170.08C204.013 170.123 203.821 170.144 203.65 170.144Z" fill="#222222"/>
<g opacity="0.8" clip-path="url(#clip0_28158_3895)">
<path d="M121.428 84.6092C121.018 84.9913 120.525 85.2738 119.988 85.4345C119.45 85.5953 118.883 85.6299 118.33 85.5356C117.777 85.4414 117.253 85.2209 116.8 84.8913C116.346 84.5618 115.976 84.1321 115.716 83.636L112.351 77.195L113.69 74.3032L120.904 78.9059C121.371 79.2038 121.763 79.604 122.051 80.076C122.339 80.5481 122.515 81.0795 122.565 81.6297C122.616 82.1799 122.54 82.7344 122.343 83.2507C122.146 83.7671 121.833 84.2317 121.428 84.6092Z" fill="#FFB8B8"/>
<path d="M111.335 78.1185L83.7513 63.8355C83.6241 63.7697 83.5124 63.6775 83.4237 63.5653C83.3349 63.4531 83.2712 63.3233 83.2366 63.1845L77.2531 39.142C76.9059 37.7469 77.0934 36.2729 77.7788 35.0084C78.4643 33.7439 79.5984 32.7799 80.9591 32.3051L82.4006 31.8021C82.722 31.69 83.063 31.6448 83.4025 31.6693C83.7421 31.6939 84.073 31.7877 84.3747 31.9449C84.6765 32.1022 84.9426 32.3195 85.1567 32.5834C85.3708 32.8473 85.5283 33.1522 85.6194 33.4793L91.517 54.6464C91.5722 54.8445 91.6869 55.021 91.8457 55.1522L114.32 73.7172C114.514 73.8774 114.64 74.104 114.675 74.3526C114.71 74.6012 114.651 74.8538 114.509 75.061L112.634 77.7935C112.494 77.9965 112.285 78.1417 112.046 78.2015C111.807 78.2614 111.554 78.2318 111.335 78.1185Z" fill="#DB3022"/>
<path d="M58.5808 102.998L46.7556 100.107L47.425 93.4333L59.2501 98.7719L58.5808 102.998Z" fill="#FFB8B8"/>
<path d="M93.1636 40.7146C79.7855 33.6927 65.7817 30.1664 50.7716 32.2618C55.2962 24.6168 58.6566 17.5487 58.4319 12.2574C58.2851 8.80005 59.7413 5.44399 62.5304 3.38437C64.7169 1.76829 67.3669 0.896401 70.0887 0.897562H70.0887C72.5192 -0.182889 75.2729 -0.292038 77.7817 0.592631C79.9544 1.35754 81.5944 3.10143 82.4736 5.22487C82.9868 6.46432 84.0915 7.55013 85.694 8.50665C87.1784 9.36289 88.3878 10.6226 89.1809 12.1385C90.2364 14.233 90.3091 16.3414 88.9257 18.4704C94.1059 23.8961 94.1204 32.0489 93.1636 40.7146Z" fill="#2F2E41"/>
<path d="M90.1809 113.596C89.2932 114.658 88.0952 115.417 86.7539 115.767C85.4126 116.118 83.9951 116.042 82.699 115.551C72.8607 116.458 64.8879 109.554 56.3495 102.998L58.3576 97.6594L41.6239 85.87L48.7636 81.4212L64.1586 75.6377L90.0623 104.958C91.1126 106.147 91.7018 107.671 91.7235 109.255C91.7453 110.839 91.1981 112.379 90.1809 113.596Z" fill="#2F2E41"/>
<path d="M74.1989 23.1416C79.3743 23.1416 83.5697 18.9588 83.5697 13.7991C83.5697 8.63934 79.3743 4.45654 74.1989 4.45654C69.0235 4.45654 64.828 8.63934 64.828 13.7991C64.828 18.9588 69.0235 23.1416 74.1989 23.1416Z" fill="#FFB8B8"/>
<path d="M78.6612 34.0414L67.7285 35.1536C68.3151 28.7807 68.5461 22.9001 67.7285 18.4705H78.6612C76.5849 25.5231 76.7671 30.55 78.6612 34.0414Z" fill="#FFB8B8"/>
<path d="M64.8279 68.9644L46.9786 59.3994C53.416 51.9594 56.1383 40.3447 57.4051 27.0947C57.6193 24.854 59.3384 24.9305 61.5927 24.8098C63.9722 24.6824 66.311 23.4267 68.3978 24.6986L74.4219 31.3718L77.3224 28.2576L83.0218 30.6929C83.6058 30.9424 84.0791 31.3948 84.3538 31.966C84.6285 32.5372 84.6859 33.1883 84.5153 33.7985C84.4094 44.5163 83.1071 53.9356 77.5455 58.7321L72.8601 63.6258L64.8279 68.9644Z" fill="#DB3022"/>
<path opacity="0.2" d="M71.9676 107.002C71.9676 107.002 63.4539 99.088 57.6705 99.486L71.9676 107.002Z" fill="black"/>
<path d="M58.2676 100.325L56.2475 112.295L49.5228 112.122L52.2219 99.5503L58.2676 100.325Z" fill="#FFB8B8"/>
<path d="M63.0201 122.998C62.5923 123.011 62.1656 122.95 61.7591 122.816L50.907 121.907C49.7685 121.357 48.875 120.407 48.3992 119.238C47.9235 118.07 47.8994 116.767 48.3316 115.582L49.5444 111.34C51.7963 112.517 54.1393 112.35 56.3494 110.561L65.9445 117.265C66.3168 117.808 66.5358 118.441 66.5783 119.097C66.6209 119.754 66.4856 120.409 66.1865 120.996C65.8874 121.582 65.4357 122.077 64.8786 122.43C64.3215 122.782 63.6795 122.978 63.0201 122.998Z" fill="#2F2E41"/>
<path d="M36.1222 106.905C36.1092 106.479 36.171 106.053 36.3048 105.648L37.2169 94.8286C37.7679 93.6936 38.7216 92.8027 39.8935 92.3284C41.0654 91.8541 42.3721 91.8301 43.5607 92.261L47.8162 93.4701C46.6352 95.7152 46.803 98.0511 48.5971 100.255L41.8729 109.821C41.3283 110.192 40.6935 110.41 40.0351 110.453C39.3767 110.495 38.719 110.36 38.1309 110.062C37.5428 109.764 37.046 109.313 36.6926 108.758C36.3392 108.203 36.1422 107.563 36.1222 106.905Z" fill="#2F2E41"/>
<path d="M58.8038 100.996L50.9948 100.551L51.2179 86.9822L45.9081 87.2877C38.116 87.7358 31.7856 80.8368 33.1984 73.1839C33.2275 73.0263 33.2595 72.8684 33.2944 72.7101C34.122 69.1142 36.2797 65.9619 39.3365 63.8827L47.4249 58.2873L54.0068 61.0678L59.2219 58.2765C60.6598 57.6691 62.2308 57.443 63.7822 57.6201C65.3336 57.7972 66.8127 58.3715 68.0756 59.2872C69.6998 60.4649 70.885 62.1478 71.4444 64.0708C72.0038 65.9939 71.9057 68.0478 71.1655 69.9092L58.8038 100.996Z" fill="#2F2E41"/>
<path opacity="0.2" d="M54.3415 75.6377C54.3415 75.6377 50.7717 82.7558 51.2179 86.9823L54.3415 75.6377Z" fill="black"/>
<path opacity="0.2" d="M67.6168 39.936L69.5715 48.8786L81.45 59.066L70.9636 48.3888L67.6168 39.936Z" fill="black"/>
<path opacity="0.2" d="M56.6842 44.1624L60.2541 58.621L70.7405 62.4026L60.9234 57.5088L56.6842 44.1624Z" fill="black"/>
<path d="M85.4662 14.3552C78.5598 11.1873 70.7514 10.2841 63.824 13.6879L64.7164 5.68001L79.8883 3.23315L85.4662 14.3552Z" fill="#2F2E41"/>
<path d="M95.5062 78.4182C95.2104 78.4186 94.9269 78.5358 94.7178 78.7444C94.5086 78.9529 94.391 79.2356 94.3906 79.5304V120.905C94.391 121.199 94.5086 121.482 94.7178 121.691C94.9269 121.899 95.2104 122.016 95.5062 122.017H189.884C190.18 122.016 190.464 121.899 190.673 121.691C190.882 121.482 190.999 121.199 191 120.905V79.5304C190.999 79.2356 190.882 78.9529 190.673 78.7444C190.464 78.5358 190.18 78.4186 189.884 78.4182H95.5062Z" fill="#E6E6E6"/>
<path d="M96.6219 79.4194C96.2966 79.4198 95.9847 79.5489 95.7546 79.7782C95.5246 80.0076 95.3952 80.3185 95.3948 80.6429V119.793C95.3952 120.117 95.5246 120.428 95.7546 120.657C95.9847 120.887 96.2966 121.016 96.6219 121.016H188.769C189.094 121.016 189.406 120.887 189.636 120.657C189.866 120.428 189.996 120.117 189.996 119.793V80.6429C189.996 80.3185 189.866 80.0076 189.636 79.7782C189.406 79.5489 189.094 79.4198 188.769 79.4194H96.6219Z" fill="white"/>
<path d="M98.6704 77.9358C98.2606 78.318 97.7677 78.6005 97.2303 78.7612C96.6929 78.9219 96.1254 78.9565 95.5723 78.8623C95.0193 78.768 94.4955 78.5475 94.0421 78.218C93.5887 77.8884 93.218 77.4588 92.9588 76.9626L89.5939 70.5216L90.9326 67.6299L98.1461 72.2326C98.6129 72.5304 99.0053 72.9306 99.2933 73.4027C99.5812 73.8747 99.7572 74.4062 99.8078 74.9564C99.8584 75.5066 99.7822 76.061 99.585 76.5774C99.3879 77.0938 99.0751 77.5584 98.6704 77.9358Z" fill="#FFB8B8"/>
<path d="M88.5769 71.4452L60.9935 57.1622C60.8663 57.0964 60.7546 57.0042 60.6659 56.892C60.5771 56.7797 60.5134 56.6499 60.4788 56.5112L54.4953 32.4687C54.1481 31.0736 54.3356 29.5996 55.021 28.3351C55.7065 27.0706 56.8405 26.1066 58.2013 25.6317L59.6428 25.1287C59.9641 25.0166 60.3052 24.9714 60.6447 24.996C60.9843 25.0206 61.3152 25.1144 61.6169 25.2716C61.9187 25.4288 62.1848 25.6461 62.3989 25.91C62.613 26.1739 62.7705 26.4789 62.8616 26.8059L68.7592 47.9731C68.8144 48.1712 68.9291 48.3477 69.0879 48.4789L91.5619 67.0439C91.7558 67.2041 91.8827 67.4307 91.9177 67.6793C91.9527 67.9279 91.8932 68.1805 91.7511 68.3877L89.8758 71.1202C89.7364 71.3232 89.5274 71.4684 89.2881 71.5282C89.0488 71.5881 88.7958 71.5585 88.5769 71.4452Z" fill="#DB3022"/>
<path d="M112.423 98.7551C116.026 98.7551 118.948 95.8428 118.948 92.2503C118.948 88.6577 116.026 85.7454 112.423 85.7454C108.819 85.7454 105.898 88.6577 105.898 92.2503C105.898 95.8428 108.819 98.7551 112.423 98.7551Z" fill="#DB3022"/>
<path d="M127.492 87.9136C127.204 87.914 126.928 88.0284 126.724 88.2317C126.52 88.4349 126.406 88.7105 126.406 88.9977C126.406 89.285 126.52 89.5605 126.724 89.7638C126.928 89.9671 127.204 90.0815 127.492 90.0819H178.757C179.045 90.0819 179.322 89.9677 179.526 89.7644C179.73 89.561 179.844 89.2853 179.844 88.9977C179.844 88.7102 179.73 88.4344 179.526 88.2311C179.322 88.0278 179.045 87.9136 178.757 87.9136H127.492Z" fill="#E6E6E6"/>
<path d="M127.492 94.4185C127.204 94.4185 126.927 94.5327 126.723 94.736C126.519 94.9393 126.405 95.2151 126.405 95.5026C126.405 95.7902 126.519 96.0659 126.723 96.2692C126.927 96.4726 127.204 96.5868 127.492 96.5868H149.551C149.694 96.587 149.836 96.5591 149.968 96.5047C150.1 96.4503 150.22 96.3705 150.321 96.2698C150.423 96.1691 150.503 96.0495 150.557 95.9179C150.612 95.7862 150.64 95.6451 150.64 95.5026C150.64 95.3601 150.612 95.219 150.557 95.0874C150.503 94.9557 150.423 94.8361 150.321 94.7355C150.22 94.6348 150.1 94.5549 149.968 94.5005C149.836 94.4461 149.694 94.4183 149.551 94.4185H127.492Z" fill="#E6E6E6"/>
<path d="M107.418 104.818C106.591 104.818 105.918 105.304 105.918 105.902C105.918 106.5 106.591 106.986 107.418 106.986H178.148C178.975 106.986 179.649 106.5 179.649 105.902C179.649 105.304 178.975 104.818 178.148 104.818H107.418Z" fill="#E6E6E6"/>
<path d="M107.418 111.323C106.591 111.323 105.918 111.809 105.918 112.407C105.918 113.005 106.591 113.491 107.418 113.491H178.148C178.975 113.491 179.649 113.005 179.649 112.407C179.649 111.809 178.975 111.323 178.148 111.323H107.418Z" fill="#E6E6E6"/>
</g>
<defs>
<clipPath id="clip0_28158_3895">
<rect width="158" height="123" fill="white" transform="translate(33)"/>
</clipPath>
</defs>
</svg>
