<svg width="101" height="24" viewBox="0 0 101 24" fill="none" xmlns="http://www.w3.org/2000/svg">
<path d="M27.124 17.126C26.4707 17.126 25.892 17.042 25.388 16.874C24.8933 16.6967 24.478 16.44 24.142 16.104C23.806 15.7587 23.5493 15.334 23.372 14.83C23.204 14.3167 23.12 13.724 23.12 13.052V7.69C23.12 7.466 23.176 7.30267 23.288 7.2C23.4 7.088 23.5587 7.032 23.764 7.032C23.9787 7.032 24.142 7.088 24.254 7.2C24.366 7.30267 24.422 7.466 24.422 7.69V13.01C24.422 14.0087 24.6507 14.7553 25.108 15.25C25.5653 15.7353 26.2373 15.978 27.124 15.978C28.0107 15.978 28.6827 15.7353 29.14 15.25C29.5973 14.7553 29.826 14.0087 29.826 13.01V7.69C29.826 7.466 29.882 7.30267 29.994 7.2C30.106 7.088 30.2647 7.032 30.47 7.032C30.6753 7.032 30.834 7.088 30.946 7.2C31.058 7.30267 31.114 7.466 31.114 7.69V13.052C31.114 13.9387 30.96 14.6853 30.652 15.292C30.3533 15.8987 29.9053 16.356 29.308 16.664C28.72 16.972 27.992 17.126 27.124 17.126ZM36.8322 17.126C36.2162 17.126 35.6889 16.972 35.2502 16.664C34.8116 16.356 34.5176 15.9407 34.3682 15.418L34.5222 15.208V16.44C34.5222 16.6547 34.4662 16.818 34.3542 16.93C34.2516 17.042 34.0976 17.098 33.8922 17.098C33.6962 17.098 33.5422 17.042 33.4302 16.93C33.3182 16.818 33.2622 16.6547 33.2622 16.44V7.676C33.2622 7.46133 33.3182 7.30267 33.4302 7.2C33.5422 7.088 33.6962 7.032 33.8922 7.032C34.0976 7.032 34.2562 7.088 34.3682 7.2C34.4802 7.30267 34.5362 7.46133 34.5362 7.676V11.722H34.3822C34.5316 11.218 34.8256 10.8167 35.2642 10.518C35.7029 10.21 36.2256 10.056 36.8322 10.056C37.4389 10.056 37.9662 10.2007 38.4142 10.49C38.8716 10.77 39.2216 11.176 39.4642 11.708C39.7162 12.2307 39.8422 12.856 39.8422 13.584C39.8422 14.3027 39.7162 14.9327 39.4642 15.474C39.2122 16.006 38.8622 16.4167 38.4142 16.706C37.9662 16.986 37.4389 17.126 36.8322 17.126ZM36.5382 16.118C36.9396 16.118 37.2896 16.02 37.5882 15.824C37.8962 15.628 38.1342 15.3433 38.3022 14.97C38.4702 14.5967 38.5542 14.1347 38.5542 13.584C38.5542 12.7627 38.3722 12.1373 38.0082 11.708C37.6442 11.2787 37.1542 11.064 36.5382 11.064C36.1276 11.064 35.7682 11.162 35.4602 11.358C35.1616 11.5447 34.9282 11.8247 34.7602 12.198C34.6016 12.5713 34.5222 13.0333 34.5222 13.584C34.5222 14.4053 34.7042 15.0353 35.0682 15.474C35.4322 15.9033 35.9222 16.118 36.5382 16.118ZM43.649 17.126C43.1824 17.126 42.7577 17.0327 42.375 16.846C42.0017 16.6593 41.7077 16.4073 41.493 16.09C41.2877 15.7727 41.185 15.418 41.185 15.026C41.185 14.522 41.311 14.1253 41.563 13.836C41.815 13.5467 42.2397 13.3413 42.837 13.22C43.4344 13.0893 44.237 13.024 45.245 13.024H45.903V13.836H45.273C44.5544 13.836 43.985 13.8687 43.565 13.934C43.1544 13.9993 42.865 14.116 42.697 14.284C42.529 14.4427 42.445 14.6667 42.445 14.956C42.445 15.32 42.571 15.6187 42.823 15.852C43.0844 16.0853 43.439 16.202 43.887 16.202C44.2417 16.202 44.5544 16.118 44.825 15.95C45.0957 15.7727 45.3104 15.5393 45.469 15.25C45.6277 14.9513 45.707 14.6107 45.707 14.228V12.618C45.707 12.0673 45.595 11.6707 45.371 11.428C45.147 11.176 44.769 11.05 44.237 11.05C43.929 11.05 43.6117 11.092 43.285 11.176C42.9584 11.26 42.6177 11.3907 42.263 11.568C42.123 11.6333 42.0017 11.6567 41.899 11.638C41.7964 11.61 41.7124 11.554 41.647 11.47C41.591 11.3767 41.5584 11.2787 41.549 11.176C41.549 11.064 41.5724 10.9567 41.619 10.854C41.675 10.7513 41.7684 10.6767 41.899 10.63C42.3097 10.4247 42.7157 10.28 43.117 10.196C43.5277 10.1027 43.9104 10.056 44.265 10.056C44.8717 10.056 45.371 10.154 45.763 10.35C46.155 10.5367 46.449 10.8307 46.645 11.232C46.841 11.624 46.939 12.128 46.939 12.744V16.44C46.939 16.6547 46.8877 16.818 46.785 16.93C46.6824 17.042 46.533 17.098 46.337 17.098C46.1504 17.098 46.001 17.042 45.889 16.93C45.7864 16.818 45.735 16.6547 45.735 16.44V15.446H45.861C45.7864 15.7913 45.6464 16.09 45.441 16.342C45.2357 16.594 44.979 16.79 44.671 16.93C44.3724 17.0607 44.0317 17.126 43.649 17.126ZM49.5739 17.098C49.3779 17.098 49.2239 17.042 49.1119 16.93C48.9999 16.818 48.9439 16.6547 48.9439 16.44V7.676C48.9439 7.46133 48.9999 7.30267 49.1119 7.2C49.2239 7.088 49.3779 7.032 49.5739 7.032C49.7792 7.032 49.9379 7.088 50.0499 7.2C50.1619 7.30267 50.2179 7.46133 50.2179 7.676V11.666H50.0359C50.2319 11.134 50.5492 10.7327 50.9879 10.462C51.4359 10.1913 51.9445 10.056 52.5139 10.056C53.0645 10.056 53.5172 10.1587 53.8719 10.364C54.2265 10.56 54.4925 10.8587 54.6699 11.26C54.8472 11.6613 54.9359 12.1653 54.9359 12.772V16.44C54.9359 16.6547 54.8799 16.818 54.7679 16.93C54.6652 17.042 54.5112 17.098 54.3059 17.098C54.1005 17.098 53.9419 17.042 53.8299 16.93C53.7179 16.818 53.6619 16.6547 53.6619 16.44V12.842C53.6619 12.2353 53.5452 11.792 53.3119 11.512C53.0785 11.232 52.7052 11.092 52.1919 11.092C51.5945 11.092 51.1139 11.2787 50.7499 11.652C50.3952 12.016 50.2179 12.5107 50.2179 13.136V16.44C50.2179 16.8787 50.0032 17.098 49.5739 17.098ZM61.236 19.618C61.04 19.618 60.886 19.562 60.774 19.45C60.662 19.338 60.606 19.1793 60.606 18.974V10.728C60.606 10.5133 60.662 10.3547 60.774 10.252C60.886 10.14 61.04 10.084 61.236 10.084C61.4413 10.084 61.5953 10.14 61.698 10.252C61.81 10.3547 61.866 10.5133 61.866 10.728V12.002L61.712 11.75C61.8613 11.2367 62.1553 10.826 62.594 10.518C63.0327 10.21 63.56 10.056 64.176 10.056C64.7827 10.056 65.31 10.2007 65.758 10.49C66.206 10.77 66.556 11.176 66.808 11.708C67.06 12.2307 67.186 12.856 67.186 13.584C67.186 14.3027 67.06 14.9327 66.808 15.474C66.5653 16.006 66.2153 16.4167 65.758 16.706C65.31 16.986 64.7827 17.126 64.176 17.126C63.5693 17.126 63.0467 16.972 62.608 16.664C62.1693 16.356 61.8753 15.95 61.726 15.446H61.88V18.974C61.88 19.1793 61.824 19.338 61.712 19.45C61.6 19.562 61.4413 19.618 61.236 19.618ZM63.882 16.118C64.2833 16.118 64.6333 16.02 64.932 15.824C65.24 15.628 65.478 15.3433 65.646 14.97C65.814 14.5967 65.898 14.1347 65.898 13.584C65.898 12.7627 65.716 12.1373 65.352 11.708C64.988 11.2787 64.498 11.064 63.882 11.064C63.4713 11.064 63.112 11.162 62.804 11.358C62.5053 11.5447 62.272 11.8247 62.104 12.198C61.9453 12.5713 61.866 13.0333 61.866 13.584C61.866 14.4053 62.048 15.0353 62.412 15.474C62.776 15.9033 63.266 16.118 63.882 16.118ZM69.4808 17.098C69.2661 17.098 69.1028 17.042 68.9908 16.93C68.8788 16.818 68.8228 16.6547 68.8228 16.44V10.728C68.8228 10.5133 68.8788 10.3547 68.9908 10.252C69.1028 10.14 69.2568 10.084 69.4528 10.084C69.6488 10.084 69.7981 10.14 69.9008 10.252C70.0128 10.3547 70.0688 10.5133 70.0688 10.728V11.806H69.9288C70.0781 11.246 70.3581 10.8213 70.7688 10.532C71.1794 10.2427 71.6974 10.0793 72.3228 10.042C72.4721 10.0327 72.5934 10.07 72.6868 10.154C72.7801 10.2287 72.8314 10.3593 72.8408 10.546C72.8501 10.7233 72.8081 10.868 72.7148 10.98C72.6214 11.0827 72.4768 11.1433 72.2808 11.162L72.0288 11.176C71.4128 11.2413 70.9368 11.442 70.6008 11.778C70.2741 12.114 70.1108 12.576 70.1108 13.164V16.44C70.1108 16.6547 70.0548 16.818 69.9428 16.93C69.8401 17.042 69.6861 17.098 69.4808 17.098ZM76.7384 17.126C76.0664 17.126 75.483 16.9813 74.9884 16.692C74.4937 16.4027 74.111 15.992 73.8404 15.46C73.5697 14.928 73.4344 14.3027 73.4344 13.584C73.4344 13.0427 73.509 12.5573 73.6584 12.128C73.817 11.6893 74.041 11.316 74.3304 11.008C74.6197 10.7 74.965 10.4667 75.3664 10.308C75.777 10.14 76.2344 10.056 76.7384 10.056C77.4104 10.056 77.9937 10.2007 78.4884 10.49C78.983 10.7793 79.3657 11.19 79.6364 11.722C79.907 12.2447 80.0424 12.8653 80.0424 13.584C80.0424 14.1253 79.963 14.6153 79.8044 15.054C79.655 15.4927 79.4357 15.866 79.1464 16.174C78.857 16.482 78.507 16.72 78.0964 16.888C77.695 17.0467 77.2424 17.126 76.7384 17.126ZM76.7384 16.118C77.149 16.118 77.5037 16.02 77.8024 15.824C78.1104 15.628 78.3437 15.3433 78.5024 14.97C78.6704 14.5967 78.7544 14.1347 78.7544 13.584C78.7544 12.7627 78.5724 12.1373 78.2084 11.708C77.8444 11.2787 77.3544 11.064 76.7384 11.064C76.337 11.064 75.9824 11.162 75.6744 11.358C75.3757 11.5447 75.1424 11.8247 74.9744 12.198C74.8064 12.5713 74.7224 13.0333 74.7224 13.584C74.7224 14.4053 74.9044 15.0353 75.2684 15.474C75.6417 15.9033 76.1317 16.118 76.7384 16.118ZM82.642 17.098C82.4367 17.098 82.278 17.042 82.166 16.93C82.054 16.818 81.998 16.6547 81.998 16.44V11.162H81.158C80.99 11.162 80.8593 11.12 80.766 11.036C80.6727 10.9427 80.626 10.8213 80.626 10.672C80.626 10.5133 80.6727 10.392 80.766 10.308C80.8593 10.224 80.99 10.182 81.158 10.182H82.348L81.998 10.518V10C81.998 9.104 82.2127 8.42267 82.642 7.956C83.0807 7.48933 83.7293 7.214 84.588 7.13L84.994 7.102C85.1527 7.08333 85.2787 7.10667 85.372 7.172C85.4653 7.228 85.526 7.30267 85.554 7.396C85.5913 7.48933 85.596 7.58733 85.568 7.69C85.5493 7.79267 85.5073 7.88133 85.442 7.956C85.3767 8.03067 85.2927 8.068 85.19 8.068L84.798 8.096C84.266 8.13333 83.8787 8.29667 83.636 8.586C83.3933 8.87533 83.272 9.29067 83.272 9.832V10.392L83.09 10.182H86.912C87.1173 10.182 87.2713 10.2427 87.374 10.364C87.486 10.476 87.542 10.644 87.542 10.868V16.384C87.542 16.5987 87.4907 16.7667 87.388 16.888C87.2853 17.0093 87.1267 17.07 86.912 17.07C86.7067 17.07 86.548 17.0093 86.436 16.888C86.324 16.7667 86.268 16.5987 86.268 16.384V11.162H83.272V16.44C83.272 16.8787 83.062 17.098 82.642 17.098ZM86.926 8.6C86.6833 8.6 86.492 8.53467 86.352 8.404C86.212 8.264 86.142 8.082 86.142 7.858C86.142 7.61533 86.212 7.43333 86.352 7.312C86.492 7.18133 86.6833 7.116 86.926 7.116C87.1873 7.116 87.3833 7.18133 87.514 7.312C87.654 7.43333 87.724 7.61533 87.724 7.858C87.724 8.082 87.654 8.264 87.514 8.404C87.3833 8.53467 87.1873 8.6 86.926 8.6ZM91.7324 17.126C91.0324 17.126 90.5004 16.9207 90.1364 16.51C89.7724 16.09 89.5904 15.488 89.5904 14.704V7.676C89.5904 7.46133 89.6464 7.30267 89.7584 7.2C89.8704 7.088 90.0244 7.032 90.2204 7.032C90.4257 7.032 90.5844 7.088 90.6964 7.2C90.8084 7.30267 90.8644 7.46133 90.8644 7.676V14.606C90.8644 15.0913 90.9624 15.4553 91.1584 15.698C91.3637 15.9313 91.653 16.048 92.0264 16.048C92.1104 16.048 92.185 16.048 92.2504 16.048C92.3157 16.0387 92.381 16.0293 92.4464 16.02C92.549 16.0107 92.6237 16.0387 92.6704 16.104C92.717 16.1693 92.7404 16.3 92.7404 16.496C92.7404 16.6733 92.6984 16.8133 92.6144 16.916C92.5397 17.0093 92.4137 17.07 92.2364 17.098C92.1524 17.1073 92.0684 17.112 91.9844 17.112C91.9004 17.1213 91.8164 17.126 91.7324 17.126ZM96.8829 17.126C96.1456 17.126 95.5109 16.986 94.9789 16.706C94.4563 16.4167 94.0503 16.0107 93.7609 15.488C93.4716 14.956 93.3269 14.3307 93.3269 13.612C93.3269 12.9027 93.4669 12.282 93.7469 11.75C94.0363 11.218 94.4283 10.8027 94.9229 10.504C95.4269 10.2053 96.0009 10.056 96.6449 10.056C97.1023 10.056 97.5129 10.1353 97.8769 10.294C98.2503 10.4433 98.5676 10.6627 98.8289 10.952C99.0903 11.2413 99.2863 11.596 99.4169 12.016C99.5569 12.4267 99.6269 12.8933 99.6269 13.416C99.6269 13.5653 99.5803 13.682 99.4869 13.766C99.4029 13.8407 99.2769 13.878 99.1089 13.878H94.3209V13.066H98.7869L98.5489 13.262C98.5489 12.7767 98.4743 12.366 98.3249 12.03C98.1849 11.6847 97.9749 11.4233 97.6949 11.246C97.4243 11.0687 97.0836 10.98 96.6729 10.98C96.2249 10.98 95.8423 11.0873 95.5249 11.302C95.2076 11.5073 94.9649 11.8013 94.7969 12.184C94.6289 12.5573 94.5449 12.9913 94.5449 13.486V13.57C94.5449 14.41 94.7456 15.0447 95.1469 15.474C95.5483 15.9033 96.1269 16.118 96.8829 16.118C97.1816 16.118 97.4849 16.0807 97.7929 16.006C98.1103 15.9313 98.4136 15.796 98.7029 15.6C98.8429 15.516 98.9689 15.4787 99.0809 15.488C99.2023 15.488 99.3003 15.5253 99.3749 15.6C99.4496 15.6653 99.4963 15.7493 99.5149 15.852C99.5336 15.9453 99.5196 16.048 99.4729 16.16C99.4263 16.272 99.3376 16.37 99.2069 16.454C98.8989 16.6687 98.5303 16.8367 98.1009 16.958C97.6809 17.07 97.2749 17.126 96.8829 17.126Z" fill="#9B9B9B"/>
<g clip-path="url(#clip0_28158_3748)">
<path d="M0 16.6663V20.0001H3.33379L13.1707 10.1631L9.8369 6.82935L0 16.6663Z" fill="#9B9B9B"/>
<path d="M15.74 6.33586L13.6642 4.26004C13.3174 3.91332 12.7529 3.91332 12.4062 4.26004L10.7793 5.88693L14.1131 9.22072L15.74 7.59383C16.0867 7.24711 16.0867 6.68258 15.74 6.33586Z" fill="#9B9B9B"/>
</g>
<defs>
<clipPath id="clip0_28158_3748">
<rect width="16" height="16" fill="white" transform="translate(0 4)"/>
</clipPath>
</defs>
</svg>
