<svg width="177" height="127" viewBox="0 0 177 127" fill="none" xmlns="http://www.w3.org/2000/svg">
<rect width="177" height="127" rx="8" fill="#D9D9D9"/>
<path d="M71.652 68.618C71.456 68.618 71.302 68.562 71.19 68.45C71.078 68.338 71.022 68.1793 71.022 67.974V59.728C71.022 59.5133 71.078 59.3547 71.19 59.252C71.302 59.14 71.456 59.084 71.652 59.084C71.8573 59.084 72.0113 59.14 72.114 59.252C72.226 59.3547 72.282 59.5133 72.282 59.728V61.002L72.128 60.75C72.2773 60.2367 72.5713 59.826 73.01 59.518C73.4487 59.21 73.976 59.056 74.592 59.056C75.1987 59.056 75.726 59.2007 76.174 59.49C76.622 59.77 76.972 60.176 77.224 60.708C77.476 61.2307 77.602 61.856 77.602 62.584C77.602 63.3027 77.476 63.9327 77.224 64.474C76.9813 65.006 76.6313 65.4167 76.174 65.706C75.726 65.986 75.1987 66.126 74.592 66.126C73.9853 66.126 73.4627 65.972 73.024 65.664C72.5853 65.356 72.2913 64.95 72.142 64.446H72.296V67.974C72.296 68.1793 72.24 68.338 72.128 68.45C72.016 68.562 71.8573 68.618 71.652 68.618ZM74.298 65.118C74.6993 65.118 75.0493 65.02 75.348 64.824C75.656 64.628 75.894 64.3433 76.062 63.97C76.23 63.5967 76.314 63.1347 76.314 62.584C76.314 61.7627 76.132 61.1373 75.768 60.708C75.404 60.2787 74.914 60.064 74.298 60.064C73.8873 60.064 73.528 60.162 73.22 60.358C72.9213 60.5447 72.688 60.8247 72.52 61.198C72.3613 61.5713 72.282 62.0333 72.282 62.584C72.282 63.4053 72.464 64.0353 72.828 64.474C73.192 64.9033 73.682 65.118 74.298 65.118ZM79.8688 66.098C79.6728 66.098 79.5188 66.042 79.4068 65.93C79.2948 65.818 79.2388 65.6547 79.2388 65.44V56.676C79.2388 56.4613 79.2948 56.3027 79.4068 56.2C79.5188 56.088 79.6728 56.032 79.8688 56.032C80.0741 56.032 80.2328 56.088 80.3448 56.2C80.4568 56.3027 80.5128 56.4613 80.5128 56.676V60.666H80.3308C80.5268 60.134 80.8441 59.7327 81.2828 59.462C81.7308 59.1913 82.2395 59.056 82.8088 59.056C83.3595 59.056 83.8121 59.1587 84.1668 59.364C84.5215 59.56 84.7875 59.8587 84.9648 60.26C85.1421 60.6613 85.2308 61.1653 85.2308 61.772V65.44C85.2308 65.6547 85.1748 65.818 85.0628 65.93C84.9601 66.042 84.8061 66.098 84.6008 66.098C84.3955 66.098 84.2368 66.042 84.1248 65.93C84.0128 65.818 83.9568 65.6547 83.9568 65.44V61.842C83.9568 61.2353 83.8401 60.792 83.6068 60.512C83.3735 60.232 83.0001 60.092 82.4868 60.092C81.8895 60.092 81.4088 60.2787 81.0448 60.652C80.6901 61.016 80.5128 61.5107 80.5128 62.136V65.44C80.5128 65.8787 80.2981 66.098 79.8688 66.098ZM90.1485 66.126C89.4765 66.126 88.8932 65.9813 88.3985 65.692C87.9038 65.4027 87.5212 64.992 87.2505 64.46C86.9798 63.928 86.8445 63.3027 86.8445 62.584C86.8445 62.0427 86.9192 61.5573 87.0685 61.128C87.2272 60.6893 87.4512 60.316 87.7405 60.008C88.0298 59.7 88.3752 59.4667 88.7765 59.308C89.1872 59.14 89.6445 59.056 90.1485 59.056C90.8205 59.056 91.4038 59.2007 91.8985 59.49C92.3932 59.7793 92.7758 60.19 93.0465 60.722C93.3172 61.2447 93.4525 61.8653 93.4525 62.584C93.4525 63.1253 93.3732 63.6153 93.2145 64.054C93.0652 64.4927 92.8458 64.866 92.5565 65.174C92.2672 65.482 91.9172 65.72 91.5065 65.888C91.1052 66.0467 90.6525 66.126 90.1485 66.126ZM90.1485 65.118C90.5592 65.118 90.9138 65.02 91.2125 64.824C91.5205 64.628 91.7538 64.3433 91.9125 63.97C92.0805 63.5967 92.1645 63.1347 92.1645 62.584C92.1645 61.7627 91.9825 61.1373 91.6185 60.708C91.2545 60.2787 90.7645 60.064 90.1485 60.064C89.7472 60.064 89.3925 60.162 89.0845 60.358C88.7858 60.5447 88.5525 60.8247 88.3845 61.198C88.2165 61.5713 88.1325 62.0333 88.1325 62.584C88.1325 63.4053 88.3145 64.0353 88.6785 64.474C89.0518 64.9033 89.5418 65.118 90.1485 65.118ZM97.8441 66.126C97.2935 66.126 96.8315 66.028 96.4581 65.832C96.0941 65.636 95.8188 65.3513 95.6321 64.978C95.4548 64.6047 95.3661 64.1473 95.3661 63.606V60.162H94.4701C94.3021 60.162 94.1715 60.12 94.0781 60.036C93.9848 59.9427 93.9381 59.8213 93.9381 59.672C93.9381 59.5133 93.9848 59.392 94.0781 59.308C94.1715 59.224 94.3021 59.182 94.4701 59.182H95.3661V57.656C95.3661 57.4413 95.4221 57.2827 95.5341 57.18C95.6461 57.068 95.8048 57.012 96.0101 57.012C96.2155 57.012 96.3695 57.068 96.4721 57.18C96.5841 57.2827 96.6401 57.4413 96.6401 57.656V59.182H98.3341C98.5115 59.182 98.6468 59.224 98.7401 59.308C98.8335 59.392 98.8801 59.5133 98.8801 59.672C98.8801 59.8213 98.8335 59.9427 98.7401 60.036C98.6468 60.12 98.5115 60.162 98.3341 60.162H96.6401V63.494C96.6401 64.0073 96.7475 64.3947 96.9621 64.656C97.1768 64.9173 97.5315 65.048 98.0261 65.048C98.2035 65.048 98.3528 65.034 98.4741 65.006C98.5955 64.9687 98.7028 64.95 98.7961 64.95C98.8801 64.9407 98.9501 64.9687 99.0061 65.034C99.0715 65.0993 99.1041 65.2207 99.1041 65.398C99.1041 65.5287 99.0808 65.65 99.0341 65.762C98.9968 65.8647 98.9175 65.9347 98.7961 65.972C98.6841 66.0093 98.5348 66.042 98.3481 66.07C98.1615 66.1073 97.9935 66.126 97.8441 66.126ZM102.863 66.126C102.191 66.126 101.608 65.9813 101.113 65.692C100.619 65.4027 100.236 64.992 99.9654 64.46C99.6947 63.928 99.5594 63.3027 99.5594 62.584C99.5594 62.0427 99.634 61.5573 99.7834 61.128C99.942 60.6893 100.166 60.316 100.455 60.008C100.745 59.7 101.09 59.4667 101.491 59.308C101.902 59.14 102.359 59.056 102.863 59.056C103.535 59.056 104.119 59.2007 104.613 59.49C105.108 59.7793 105.491 60.19 105.761 60.722C106.032 61.2447 106.167 61.8653 106.167 62.584C106.167 63.1253 106.088 63.6153 105.929 64.054C105.78 64.4927 105.561 64.866 105.271 65.174C104.982 65.482 104.632 65.72 104.221 65.888C103.82 66.0467 103.367 66.126 102.863 66.126ZM102.863 65.118C103.274 65.118 103.629 65.02 103.927 64.824C104.235 64.628 104.469 64.3433 104.627 63.97C104.795 63.5967 104.879 63.1347 104.879 62.584C104.879 61.7627 104.697 61.1373 104.333 60.708C103.969 60.2787 103.479 60.064 102.863 60.064C102.462 60.064 102.107 60.162 101.799 60.358C101.501 60.5447 101.267 60.8247 101.099 61.198C100.931 61.5713 100.847 62.0333 100.847 62.584C100.847 63.4053 101.029 64.0353 101.393 64.474C101.767 64.9033 102.257 65.118 102.863 65.118Z" fill="white"/>
</svg>
